<svg xmlns="http://www.w3.org/2000/svg" xmlns:xlink="http://www.w3.org/1999/xlink" width="497.5" height="51.659" viewBox="0 0 497.5 51.659">
  <defs>
    <clipPath id="clip-path">
      <rect id="Rectangle_2" data-name="Rectangle 2" width="497.5" height="51.659" fill="#fff"/>
    </clipPath>
  </defs>
  <g id="Group_2" data-name="Group 2" transform="translate(0 0)">
    <g id="Group_1" data-name="Group 1" transform="translate(0 0)" clip-path="url(#clip-path)">
      <path id="Path_1" data-name="Path 1" d="M102.041,1.266h11.312V5.75A15,15,0,0,1,125.358,0a14.284,14.284,0,0,1,12.583,7.131A17.236,17.236,0,0,1,152.37,0a15.576,15.576,0,0,1,13.853,7.59c.923,1.61,2.538,5.175,2.538,12.189v29.9H157.45V23c0-5.4-.577-7.589-1.038-8.624a6.4,6.4,0,0,0-6.465-4.255,8.366,8.366,0,0,0-6.7,3.563c-1.962,2.762-2.193,6.9-2.193,11.04V49.677H129.745V23c0-5.4-.576-7.589-1.038-8.624a6.4,6.4,0,0,0-6.464-4.255,8.365,8.365,0,0,0-6.7,3.563c-1.962,2.762-2.195,6.9-2.195,11.04V49.677H102.041Zm-39.165,0H74.187V5.635A19.578,19.578,0,0,1,78.92,1.61,13.114,13.114,0,0,1,85.846,0a16.834,16.834,0,0,1,8.889,2.3L90.118,12.534a10.275,10.275,0,0,0-5.773-1.724c-2.423,0-4.848.344-7.041,2.644-3.116,3.335-3.116,7.935-3.116,11.154V49.677H62.876ZM11.543,25.643c0,8.395,5.309,15.409,13.505,15.409,7.157,0,13.737-5.173,13.737-15.294,0-10.579-6.581-15.637-13.737-15.637-8.2,0-13.505,6.9-13.505,15.522M38.093,1.266H49.405V49.677H38.093v-5.06a18.7,18.7,0,0,1-14.546,6.555C8.541,51.171,0,38.753,0,25.414,0,9.66,10.849,0,23.663,0a17.749,17.749,0,0,1,14.43,6.9Z" transform="translate(0 0)" fill="#fff"/>
      <path id="Path_2" data-name="Path 2" d="M217.171,26.361H237.52v1.167a26.726,26.726,0,0,1-4.684,15.386,21.933,21.933,0,0,1-18.154,8.749c-14.492,0-25.326-11.011-25.326-25.157S200.262,1.351,214.828,1.351a24.368,24.368,0,0,1,14.933,4.814,29.68,29.68,0,0,1,5.636,5.76l-4.026,3.646a25.633,25.633,0,0,0-4.611-5.031A17.955,17.955,0,0,0,214.9,6.456c-11.784,0-19.982,8.822-19.982,20.125,0,13.271,10.613,19.979,19.836,19.979a17,17,0,0,0,14.931-8.166,15.325,15.325,0,0,0,1.977-6.929H217.171Z" transform="translate(-0.64 -0.005)" fill="#fff"/>
      <path id="Path_3" data-name="Path 3" d="M285,12.873a24.01,24.01,0,0,0-6.368-4.521,20.848,20.848,0,0,0-8.418-1.9c-11.273,0-19.618,9.041-19.618,20.27,0,13.2,10.761,19.835,19.691,19.835A20.364,20.364,0,0,0,279.36,44.3,22.233,22.233,0,0,0,285,40.217v6.707a25.494,25.494,0,0,1-14.713,4.738c-14.494,0-25.253-10.936-25.253-25.01,0-14.51,10.907-25.3,25.547-25.3A23.071,23.071,0,0,1,285,6.164Z" transform="translate(-0.828 -0.005)" fill="#fff"/>
      <path id="Path_4" data-name="Path 4" d="M332.444,12.873a24.01,24.01,0,0,0-6.368-4.521,20.848,20.848,0,0,0-8.418-1.9c-11.273,0-19.617,9.041-19.617,20.27,0,13.2,10.76,19.835,19.691,19.835a20.356,20.356,0,0,0,9.076-2.261,22.222,22.222,0,0,0,5.637-4.082v6.707a25.5,25.5,0,0,1-14.713,4.738c-14.494,0-25.253-10.936-25.253-25.01,0-14.51,10.907-25.3,25.547-25.3a23.071,23.071,0,0,1,14.419,4.813Z" transform="translate(-0.988 -0.005)" fill="#fff"/>
      <path id="Path_5" data-name="Path 5" d="M368.655.978a17.255,17.255,0,0,1,5.612.891,12.952,12.952,0,0,1,4.507,2.592A12.1,12.1,0,0,1,381.762,8.6a13.48,13.48,0,0,1,1.088,5.546,14.587,14.587,0,0,1-.791,4.886,19.971,19.971,0,0,1-2.146,4.307,31.625,31.625,0,0,1-3.12,3.994q-1.766,1.931-3.746,3.946L360.6,44.027a24.961,24.961,0,0,1,2.675-.578,16.71,16.71,0,0,1,2.607-.214h15.847a2.049,2.049,0,0,1,1.518.562,1.962,1.962,0,0,1,.561,1.452v3.565H352.247V46.8a3.67,3.67,0,0,1,.248-1.288,3.429,3.429,0,0,1,.808-1.222l15.154-15.218q1.882-1.915,3.433-3.682a26.79,26.79,0,0,0,2.658-3.549,16.525,16.525,0,0,0,1.7-3.615,12.593,12.593,0,0,0,.595-3.912,9.356,9.356,0,0,0-.661-3.649,7.059,7.059,0,0,0-1.816-2.591,7.632,7.632,0,0,0-2.707-1.535,10.589,10.589,0,0,0-3.334-.512,10,10,0,0,0-3.3.528,8.821,8.821,0,0,0-4.67,3.7,8.693,8.693,0,0,0-1.139,2.839,2.633,2.633,0,0,1-.793,1.386,2.12,2.12,0,0,1-1.385.43c-.111,0-.226,0-.347-.017s-.259-.027-.413-.049l-3.071-.528a17.416,17.416,0,0,1,1.783-5.729,13.65,13.65,0,0,1,3.351-4.176,14.287,14.287,0,0,1,4.655-2.558,17.8,17.8,0,0,1,5.662-.875" transform="translate(-1.19 -0.003)" fill="#fff"/>
      <path id="Path_6" data-name="Path 6" d="M417.44,25.177a38.691,38.691,0,0,0-.908-9.1,18.256,18.256,0,0,0-2.443-5.926,9.241,9.241,0,0,0-3.549-3.219,9.514,9.514,0,0,0-8.386,0,9.12,9.12,0,0,0-3.533,3.219,18.48,18.48,0,0,0-2.426,5.926,38.632,38.632,0,0,0-.908,9.1,38.4,38.4,0,0,0,.908,9.078,18.474,18.474,0,0,0,2.426,5.91,9.113,9.113,0,0,0,3.533,3.219,9.514,9.514,0,0,0,8.386,0,9.233,9.233,0,0,0,3.549-3.219,18.25,18.25,0,0,0,2.443-5.91,38.461,38.461,0,0,0,.908-9.078m6.107,0a38.235,38.235,0,0,1-1.338,10.746,22.426,22.426,0,0,1-3.648,7.511,14.648,14.648,0,0,1-5.464,4.424,16.42,16.42,0,0,1-13.5,0,14.715,14.715,0,0,1-5.431-4.424,22.209,22.209,0,0,1-3.632-7.511,38.688,38.688,0,0,1-1.32-10.746,38.875,38.875,0,0,1,1.32-10.763,22.407,22.407,0,0,1,3.632-7.543,14.674,14.674,0,0,1,5.431-4.44,16.41,16.41,0,0,1,13.5,0,14.607,14.607,0,0,1,5.464,4.44,22.627,22.627,0,0,1,3.648,7.543,38.42,38.42,0,0,1,1.338,10.763" transform="translate(-1.315 -0.003)" fill="#fff"/>
      <path id="Path_7" data-name="Path 7" d="M445.5.978a17.251,17.251,0,0,1,5.612.891,12.951,12.951,0,0,1,4.507,2.592A12.1,12.1,0,0,1,458.61,8.6,13.48,13.48,0,0,1,459.7,14.15a14.587,14.587,0,0,1-.792,4.886,19.926,19.926,0,0,1-2.146,4.307,31.53,31.53,0,0,1-3.12,3.994q-1.766,1.931-3.746,3.946L437.448,44.027a24.957,24.957,0,0,1,2.675-.578,16.714,16.714,0,0,1,2.608-.214h15.846a2.048,2.048,0,0,1,1.518.562,1.962,1.962,0,0,1,.561,1.452v3.565H429.1V46.8a3.667,3.667,0,0,1,.247-1.288,3.432,3.432,0,0,1,.809-1.222l15.153-15.218q1.882-1.915,3.433-3.682a26.785,26.785,0,0,0,2.658-3.549,16.527,16.527,0,0,0,1.7-3.615,12.62,12.62,0,0,0,.594-3.912,9.357,9.357,0,0,0-.66-3.649,7.082,7.082,0,0,0-1.816-2.591,7.649,7.649,0,0,0-2.707-1.535,10.6,10.6,0,0,0-3.335-.512,10,10,0,0,0-3.3.528,8.828,8.828,0,0,0-4.671,3.7,8.691,8.691,0,0,0-1.139,2.839,2.631,2.631,0,0,1-.792,1.386,2.125,2.125,0,0,1-1.386.43c-.111,0-.226,0-.347-.017s-.259-.027-.413-.049l-3.07-.528a17.391,17.391,0,0,1,1.782-5.729,13.65,13.65,0,0,1,3.351-4.176,14.308,14.308,0,0,1,4.655-2.558A17.8,17.8,0,0,1,445.5.978" transform="translate(-1.45 -0.003)" fill="#fff"/>
      <path id="Path_8" data-name="Path 8" d="M483.927.978a17.251,17.251,0,0,1,5.612.891,12.951,12.951,0,0,1,4.507,2.592A12.1,12.1,0,0,1,497.034,8.6a13.48,13.48,0,0,1,1.089,5.546,14.587,14.587,0,0,1-.792,4.886,19.927,19.927,0,0,1-2.146,4.307,31.63,31.63,0,0,1-3.12,3.994q-1.766,1.931-3.746,3.946L475.872,44.027a24.961,24.961,0,0,1,2.675-.578,16.71,16.71,0,0,1,2.607-.214H497a2.048,2.048,0,0,1,1.518.562,1.962,1.962,0,0,1,.561,1.452v3.565H467.52V46.8a3.669,3.669,0,0,1,.247-1.288,3.432,3.432,0,0,1,.809-1.222l15.153-15.218q1.882-1.915,3.433-3.682a26.791,26.791,0,0,0,2.658-3.549,16.526,16.526,0,0,0,1.7-3.615,12.622,12.622,0,0,0,.594-3.912,9.357,9.357,0,0,0-.66-3.649,7.082,7.082,0,0,0-1.816-2.591,7.65,7.65,0,0,0-2.707-1.535,10.6,10.6,0,0,0-3.335-.512,10,10,0,0,0-3.3.528,8.818,8.818,0,0,0-4.671,3.7,8.693,8.693,0,0,0-1.139,2.839,2.631,2.631,0,0,1-.792,1.386,2.124,2.124,0,0,1-1.386.43c-.111,0-.226,0-.347-.017s-.259-.027-.413-.049l-3.071-.528a17.416,17.416,0,0,1,1.783-5.729,13.65,13.65,0,0,1,3.351-4.176,14.307,14.307,0,0,1,4.655-2.558,17.8,17.8,0,0,1,5.662-.875" transform="translate(-1.58 -0.003)" fill="#fff"/>
    </g>
  </g>
</svg>
